<svg width="215" height="24" viewBox="0 0 215 24" fill="none" xmlns="http://www.w3.org/2000/svg">
<path d="M-0.000710249 23.2727V-2.28882e-05H15.4084V4.0568H4.91974V9.60225H14.3857V13.6591H4.91974V23.2727H-0.000710249ZM23.3857 23.6023C22.272 23.6023 21.2796 23.4091 20.4084 23.0227C19.5372 22.6288 18.8478 22.0492 18.3402 21.2841C17.8402 20.5113 17.5902 19.5492 17.5902 18.3977C17.5902 17.428 17.7682 16.6136 18.1243 15.9545C18.4804 15.2954 18.9652 14.7651 19.5788 14.3636C20.1925 13.9621 20.8894 13.6591 21.6697 13.4545C22.4576 13.25 23.2834 13.106 24.147 13.0227C25.1622 12.9166 25.9804 12.8182 26.6016 12.7273C27.2228 12.6288 27.6735 12.4848 27.9538 12.2954C28.2341 12.106 28.3743 11.8257 28.3743 11.4545V11.3863C28.3743 10.6666 28.147 10.1098 27.6925 9.71589C27.2455 9.32195 26.6091 9.12498 25.7834 9.12498C24.9122 9.12498 24.219 9.31816 23.7038 9.70452C23.1887 10.0833 22.8478 10.5606 22.6811 11.1363L18.2038 10.7727C18.4311 9.7121 18.8781 8.79543 19.5447 8.02271C20.2114 7.2424 21.0713 6.64392 22.1243 6.22725C23.1849 5.80301 24.4122 5.59089 25.8061 5.59089C26.7758 5.59089 27.7038 5.70452 28.5902 5.9318C29.4841 6.15907 30.2758 6.51134 30.9652 6.98861C31.6622 7.46589 32.2114 8.07952 32.6129 8.82952C33.0144 9.57195 33.2152 10.4621 33.2152 11.5V23.2727H28.6243V20.8523H28.4879C28.2076 21.3977 27.8326 21.8788 27.3629 22.2954C26.8932 22.7045 26.3288 23.0265 25.6697 23.2613C25.0107 23.4886 24.2493 23.6023 23.3857 23.6023ZM24.772 20.2613C25.4841 20.2613 26.1129 20.1212 26.6584 19.8409C27.2038 19.553 27.6319 19.1666 27.9425 18.6818C28.2531 18.1969 28.4084 17.6477 28.4084 17.0341V15.1818C28.2569 15.2803 28.0485 15.3712 27.7834 15.4545C27.5258 15.5303 27.2341 15.6023 26.9084 15.6704C26.5826 15.731 26.2569 15.7879 25.9311 15.8409C25.6054 15.8863 25.3099 15.928 25.0447 15.9659C24.4766 16.0492 23.9804 16.1818 23.5561 16.3636C23.1319 16.5454 22.8023 16.7916 22.5675 17.1023C22.3326 17.4053 22.2152 17.7841 22.2152 18.2386C22.2152 18.8977 22.4538 19.4015 22.9311 19.75C23.416 20.0909 24.0296 20.2613 24.772 20.2613ZM36.9709 23.2727V5.81816H41.6641V8.86361H41.8459C42.1641 7.78028 42.6982 6.9621 43.4482 6.40907C44.1982 5.84846 45.0618 5.56816 46.0391 5.56816C46.2815 5.56816 46.5429 5.58331 46.8232 5.61361C47.1035 5.64392 47.3497 5.68558 47.5618 5.73861V10.0341C47.3345 9.96589 47.0201 9.90528 46.6186 9.85225C46.2171 9.79922 45.8497 9.77271 45.5163 9.77271C44.8042 9.77271 44.1679 9.92801 43.6072 10.2386C43.0542 10.5416 42.6148 10.9659 42.2891 11.5113C41.9709 12.0568 41.8118 12.6856 41.8118 13.3977V23.2727H36.9709ZM50.0646 23.2727V5.81816H54.6783V8.89771H54.8828C55.2464 7.87498 55.8525 7.06816 56.701 6.47725C57.5495 5.88634 58.5646 5.59089 59.7464 5.59089C60.9434 5.59089 61.9624 5.89013 62.8033 6.48861C63.6442 7.07952 64.2048 7.88255 64.4851 8.89771H64.6669C65.023 7.89771 65.6669 7.09846 66.5987 6.49998C67.5381 5.89392 68.648 5.59089 69.9283 5.59089C71.5571 5.59089 72.879 6.10983 73.8942 7.14771C74.9169 8.17801 75.4283 9.64013 75.4283 11.5341V23.2727H70.5987V12.4886C70.5987 11.5189 70.3411 10.7916 69.826 10.3068C69.3108 9.82195 68.6669 9.57952 67.8942 9.57952C67.0154 9.57952 66.3298 9.85983 65.8374 10.4204C65.3449 10.9735 65.0987 11.7045 65.0987 12.6136V23.2727H60.4055V12.3863C60.4055 11.5303 60.1593 10.8485 59.6669 10.3409C59.1821 9.83331 58.5419 9.57952 57.7464 9.57952C57.2086 9.57952 56.7237 9.71589 56.2919 9.98861C55.8677 10.2538 55.5305 10.6288 55.2805 11.1136C55.0305 11.5909 54.9055 12.1515 54.9055 12.7954V23.2727H50.0646ZM87.2067 23.6136C85.4112 23.6136 83.8658 23.25 82.5703 22.5227C81.2824 21.7879 80.29 20.75 79.593 19.4091C78.8961 18.0606 78.5476 16.4659 78.5476 14.625C78.5476 12.8295 78.8961 11.2538 79.593 9.89771C80.29 8.54164 81.2711 7.48483 82.5362 6.72725C83.8089 5.96967 85.3014 5.59089 87.0135 5.59089C88.165 5.59089 89.237 5.77649 90.2294 6.14771C91.2294 6.51134 92.1006 7.06058 92.843 7.79543C93.593 8.53028 94.1764 9.45452 94.593 10.5682C95.0097 11.6742 95.218 12.9697 95.218 14.4545V15.7841H80.4794V12.7841H90.6612C90.6612 12.0871 90.5097 11.4697 90.2067 10.9318C89.9036 10.3939 89.4832 9.97346 88.9453 9.67043C88.415 9.35983 87.7976 9.20452 87.093 9.20452C86.3582 9.20452 85.7067 9.37498 85.1385 9.71589C84.5779 10.0492 84.1385 10.5 83.8203 11.0682C83.5021 11.6288 83.3393 12.2538 83.3317 12.9432V15.7954C83.3317 16.6591 83.4908 17.4053 83.8089 18.0341C84.1347 18.6629 84.593 19.1477 85.1839 19.4886C85.7749 19.8295 86.4756 20 87.2862 20C87.8241 20 88.3165 19.9242 88.7635 19.7727C89.2105 19.6212 89.593 19.3939 89.9112 19.0909C90.2294 18.7879 90.4718 18.4166 90.6385 17.9773L95.1158 18.2727C94.8885 19.3485 94.4226 20.2879 93.718 21.0909C93.0211 21.8863 92.1196 22.5076 91.0135 22.9545C89.915 23.3939 88.6461 23.6136 87.2067 23.6136ZM98.3771 23.2727V5.81816H103.07V8.86361H103.252C103.57 7.78028 104.104 6.9621 104.854 6.40907C105.604 5.84846 106.468 5.56816 107.445 5.56816C107.688 5.56816 107.949 5.58331 108.229 5.61361C108.51 5.64392 108.756 5.68558 108.968 5.73861V10.0341C108.741 9.96589 108.426 9.90528 108.025 9.85225C107.623 9.79922 107.256 9.77271 106.923 9.77271C106.21 9.77271 105.574 9.92801 105.013 10.2386C104.46 10.5416 104.021 10.9659 103.695 11.5113C103.377 12.0568 103.218 12.6856 103.218 13.3977V23.2727H98.3771ZM125.994 10.7954L121.562 11.0682C121.486 10.6894 121.323 10.3485 121.073 10.0454C120.823 9.73483 120.494 9.48861 120.085 9.3068C119.683 9.1174 119.202 9.02271 118.641 9.02271C117.891 9.02271 117.259 9.1818 116.744 9.49998C116.228 9.81058 115.971 10.2272 115.971 10.75C115.971 11.1666 116.138 11.5189 116.471 11.8068C116.804 12.0947 117.376 12.3257 118.187 12.5L121.346 13.1363C123.043 13.4848 124.308 14.0454 125.141 14.8182C125.975 15.5909 126.391 16.606 126.391 17.8636C126.391 19.0076 126.054 20.0113 125.38 20.875C124.713 21.7386 123.797 22.4129 122.63 22.8977C121.471 23.375 120.134 23.6136 118.619 23.6136C116.308 23.6136 114.467 23.1326 113.096 22.1704C111.732 21.2007 110.933 19.8826 110.698 18.2159L115.46 17.9659C115.603 18.6704 115.952 19.2083 116.505 19.5795C117.058 19.9432 117.766 20.125 118.63 20.125C119.478 20.125 120.16 19.9621 120.675 19.6363C121.198 19.303 121.463 18.875 121.471 18.3523C121.463 17.9129 121.278 17.553 120.914 17.2727C120.55 16.9848 119.99 16.7651 119.232 16.6136L116.21 16.0113C114.505 15.6704 113.236 15.0795 112.403 14.2386C111.577 13.3977 111.164 12.3257 111.164 11.0227C111.164 9.90149 111.467 8.93558 112.073 8.12498C112.687 7.31437 113.547 6.68937 114.653 6.24998C115.766 5.81058 117.069 5.59089 118.562 5.59089C120.766 5.59089 122.501 6.0568 123.766 6.98861C125.039 7.92043 125.781 9.18937 125.994 10.7954ZM142.175 23.2727L135.516 -2.28882e-05H140.891L144.744 16.1704H144.937L149.187 -2.28882e-05H153.789L158.028 16.2045H158.232L162.085 -2.28882e-05H167.46L160.8 23.2727H156.005L151.573 8.0568H151.391L146.971 23.2727H142.175ZM173.104 23.6023C171.991 23.6023 170.998 23.4091 170.127 23.0227C169.256 22.6288 168.567 22.0492 168.059 21.2841C167.559 20.5113 167.309 19.5492 167.309 18.3977C167.309 17.428 167.487 16.6136 167.843 15.9545C168.199 15.2954 168.684 14.7651 169.298 14.3636C169.911 13.9621 170.608 13.6591 171.388 13.4545C172.176 13.25 173.002 13.106 173.866 13.0227C174.881 12.9166 175.699 12.8182 176.32 12.7273C176.942 12.6288 177.392 12.4848 177.673 12.2954C177.953 12.106 178.093 11.8257 178.093 11.4545V11.3863C178.093 10.6666 177.866 10.1098 177.411 9.71589C176.964 9.32195 176.328 9.12498 175.502 9.12498C174.631 9.12498 173.938 9.31816 173.423 9.70452C172.907 10.0833 172.567 10.5606 172.4 11.1363L167.923 10.7727C168.15 9.7121 168.597 8.79543 169.263 8.02271C169.93 7.2424 170.79 6.64392 171.843 6.22725C172.904 5.80301 174.131 5.59089 175.525 5.59089C176.495 5.59089 177.423 5.70452 178.309 5.9318C179.203 6.15907 179.995 6.51134 180.684 6.98861C181.381 7.46589 181.93 8.07952 182.332 8.82952C182.733 9.57195 182.934 10.4621 182.934 11.5V23.2727H178.343V20.8523H178.207C177.926 21.3977 177.551 21.8788 177.082 22.2954C176.612 22.7045 176.048 23.0265 175.388 23.2613C174.729 23.4886 173.968 23.6023 173.104 23.6023ZM174.491 20.2613C175.203 20.2613 175.832 20.1212 176.377 19.8409C176.923 19.553 177.351 19.1666 177.661 18.6818C177.972 18.1969 178.127 17.6477 178.127 17.0341V15.1818C177.976 15.2803 177.767 15.3712 177.502 15.4545C177.245 15.5303 176.953 15.6023 176.627 15.6704C176.301 15.731 175.976 15.7879 175.65 15.8409C175.324 15.8863 175.029 15.928 174.763 15.9659C174.195 16.0492 173.699 16.1818 173.275 16.3636C172.851 16.5454 172.521 16.7916 172.286 17.1023C172.051 17.4053 171.934 17.7841 171.934 18.2386C171.934 18.8977 172.173 19.4015 172.65 19.75C173.135 20.0909 173.748 20.2613 174.491 20.2613ZM186.69 23.2727V5.81816H191.383V8.86361H191.565C191.883 7.78028 192.417 6.9621 193.167 6.40907C193.917 5.84846 194.781 5.56816 195.758 5.56816C196 5.56816 196.262 5.58331 196.542 5.61361C196.822 5.64392 197.068 5.68558 197.281 5.73861V10.0341C197.053 9.96589 196.739 9.90528 196.337 9.85225C195.936 9.79922 195.568 9.77271 195.235 9.77271C194.523 9.77271 193.887 9.92801 193.326 10.2386C192.773 10.5416 192.334 10.9659 192.008 11.5113C191.69 12.0568 191.531 12.6856 191.531 13.3977V23.2727H186.69ZM206.925 23.6136C205.13 23.6136 203.585 23.25 202.289 22.5227C201.001 21.7879 200.009 20.75 199.312 19.4091C198.615 18.0606 198.266 16.4659 198.266 14.625C198.266 12.8295 198.615 11.2538 199.312 9.89771C200.009 8.54164 200.99 7.48483 202.255 6.72725C203.528 5.96967 205.02 5.59089 206.732 5.59089C207.884 5.59089 208.956 5.77649 209.948 6.14771C210.948 6.51134 211.819 7.06058 212.562 7.79543C213.312 8.53028 213.895 9.45452 214.312 10.5682C214.728 11.6742 214.937 12.9697 214.937 14.4545V15.7841H200.198V12.7841H210.38C210.38 12.0871 210.228 11.4697 209.925 10.9318C209.622 10.3939 209.202 9.97346 208.664 9.67043C208.134 9.35983 207.516 9.20452 206.812 9.20452C206.077 9.20452 205.425 9.37498 204.857 9.71589C204.297 10.0492 203.857 10.5 203.539 11.0682C203.221 11.6288 203.058 12.2538 203.05 12.9432V15.7954C203.05 16.6591 203.21 17.4053 203.528 18.0341C203.853 18.6629 204.312 19.1477 204.903 19.4886C205.494 19.8295 206.194 20 207.005 20C207.543 20 208.035 19.9242 208.482 19.7727C208.929 19.6212 209.312 19.3939 209.63 19.0909C209.948 18.7879 210.191 18.4166 210.357 17.9773L214.835 18.2727C214.607 19.3485 214.141 20.2879 213.437 21.0909C212.74 21.8863 211.838 22.5076 210.732 22.9545C209.634 23.3939 208.365 23.6136 206.925 23.6136Z" fill="white"/>
</svg>
