<svg width="35" height="35" viewBox="0 0 35 35" fill="none" xmlns="http://www.w3.org/2000/svg">
<path d="M29.1735 32.0834H5.84017C5.03476 32.0834 4.38184 31.4305 4.38184 30.6251V4.37508C4.38184 3.56967 5.03476 2.91675 5.84017 2.91675H29.1735C29.979 2.91675 30.6319 3.56967 30.6319 4.37508V30.6251C30.6319 31.4305 29.979 32.0834 29.1735 32.0834ZM27.7152 29.1667V5.83341H7.2985V29.1667H27.7152ZM13.1318 8.75008V11.6667C13.1318 14.083 15.0906 16.0417 17.5069 16.0417C19.923 16.0417 21.8819 14.083 21.8819 11.6667V8.75008H24.7985V11.6667C24.7985 15.6938 21.5339 18.9584 17.5069 18.9584C13.4798 18.9584 10.2152 15.6938 10.2152 11.6667V8.75008H13.1318Z" fill="white"/>
</svg>
