<svg width="35" height="35" viewBox="0 0 35 35" fill="none" xmlns="http://www.w3.org/2000/svg">
<path d="M5.83301 32.0833C5.83301 25.6399 11.0563 20.4166 17.4997 20.4166C23.943 20.4166 29.1663 25.6399 29.1663 32.0833H26.2497C26.2497 27.2508 22.3322 23.3333 17.4997 23.3333C12.6672 23.3333 8.74967 27.2508 8.74967 32.0833H5.83301ZM17.4997 18.9583C12.6653 18.9583 8.74967 15.0426 8.74967 10.2083C8.74967 5.37388 12.6653 1.45825 17.4997 1.45825C22.334 1.45825 26.2497 5.37388 26.2497 10.2083C26.2497 15.0426 22.334 18.9583 17.4997 18.9583ZM17.4997 16.0416C20.7226 16.0416 23.333 13.4312 23.333 10.2083C23.333 6.98534 20.7226 4.37492 17.4997 4.37492C14.2768 4.37492 11.6663 6.98534 11.6663 10.2083C11.6663 13.4312 14.2768 16.0416 17.4997 16.0416Z" fill="white"/>
</svg>
