<svg width="45" height="45" viewBox="0 0 45 45" fill="none" xmlns="http://www.w3.org/2000/svg">
<path d="M7.9875 7.9875C5.625 10.3725 5.625 14.1863 5.625 21.825V23.175C5.625 30.8025 5.625 34.6162 7.9875 37.0125C10.3725 39.375 14.1863 39.375 21.825 39.375H23.175C30.8025 39.375 34.6162 39.375 37.0125 37.0125C39.375 34.6275 39.375 30.8137 39.375 23.175V21.825C39.375 14.1975 39.375 10.3838 37.0125 7.9875C34.6275 5.625 30.8137 5.625 23.175 5.625H21.825C14.1975 5.625 10.3838 5.625 7.9875 7.9875ZM11.3177 15.8966H15.1877C15.3115 22.3316 18.1465 25.0541 20.3964 25.6166V15.8966H24.0302V21.4429C26.2464 21.2066 28.5864 18.6753 29.3739 15.8853H32.9964C32.7011 17.3296 32.1111 18.6974 31.2632 19.9033C30.4155 21.1091 29.328 22.1273 28.0689 22.8941C29.4741 23.5933 30.7149 24.5826 31.7096 25.7966C32.7045 27.0105 33.4307 28.4214 33.8402 29.9366H29.8464C28.9914 27.2704 26.8539 25.2004 24.0302 24.9191V29.9366H23.5914H23.5802C15.8852 29.9366 11.4977 24.6716 11.3177 15.8966Z" fill="black"/>
</svg>
